<svg class="svg-icon" style="width: 1em; height: 1em;vertical-align: middle;fill: currentColor;overflow: hidden;" viewBox="0 0 1024 1024" version="1.1" xmlns="http://www.w3.org/2000/svg"><path d="M420.608 840.96L512 682.666667H216.32a342.101333 342.101333 0 0 0 204.288 158.293333zM181.418667 597.333333h182.784L216.32 341.290667A339.754667 339.754667 0 0 0 170.666667 512c0 29.44 3.754667 58.026667 10.752 85.333333z m91.434666-328.874666L364.16 426.666667 512 170.666667a340.224 340.224 0 0 0-239.146667 97.792z m330.538667-85.418667L512 341.333333h295.68a342.101333 342.101333 0 0 0-204.288-158.293333zM842.581333 426.666667h-182.784l147.84 256.042666A339.754667 339.754667 0 0 0 853.333333 512c0-29.44-3.754667-58.026667-10.752-85.333333z m-91.434666 328.874666L659.84 597.333333 512 853.333333a340.224 340.224 0 0 0 239.146667-97.792zM512 938.666667C276.352 938.666667 85.333333 747.648 85.333333 512S276.352 85.333333 512 85.333333s426.666667 191.018667 426.666667 426.666667-191.018667 426.666667-426.666667 426.666667z m49.28-512h-98.56l-49.237333 85.333333 49.237333 85.333333h98.56l49.237333-85.333333-49.237333-85.333333z"  /></svg>