<svg width="71" height="80" viewBox="0 0 71 80" fill="none" xmlns="http://www.w3.org/2000/svg">
<path d="M70.0374 46.8501C70.6557 44.346 70.6702 42.7323 70.0643 39.8049C70.0348 39.6623 69.8657 39.6001 69.7485 39.6866C65.6559 42.7085 62.907 43.9997 58.1923 45.7454C58.0012 45.8162 58.0241 46.0948 58.2249 46.1303C61.9828 46.795 64.5701 47.0642 69.8445 47.0019C69.9351 47.0009 70.0157 46.9381 70.0374 46.8501Z" fill="url(#paint0_linear_27_44)"/>
<path d="M60.0644 59.1634C60.864 54.905 60.7445 52.3344 57.0684 48.1321C56.9294 47.9733 57.097 47.7228 57.2955 47.7945C61.6841 49.3795 64.5984 49.7378 69.7019 49.5136C69.8435 49.5074 69.9476 49.6495 69.8997 49.783C67.5673 56.2872 65.068 57.7953 60.3255 59.3914C60.1805 59.4402 60.0362 59.3136 60.0644 59.1634Z" fill="url(#paint1_linear_27_44)"/>
<path d="M55.4775 48.954C50.9682 44.3189 47.1811 42.4909 38.8789 41.0643C38.7201 41.037 38.5953 41.2038 38.6638 41.3497C44.5222 53.8423 47.4946 58.3904 54.2616 58.0151C54.3849 58.0083 54.4736 57.8897 54.4421 57.7702C53.5058 54.209 51.1067 52.2382 46.4284 47.8982C46.2887 47.7686 46.3936 47.5362 46.5832 47.5547C50.5191 47.9383 52.4662 48.4304 55.2773 49.2799C55.4737 49.3393 55.6206 49.101 55.4775 48.954Z" fill="url(#paint2_linear_27_44)"/>
<path d="M51 33C50.0303 30.0909 50.5672 28.8589 50.9634 27.1606C50.9851 27.0674 51.0691 27.0016 51.1647 27.0053C52.9185 27.0727 54.2754 27.4941 55.431 29.385C55.4731 29.4538 55.4693 29.541 55.4215 29.606C55.1129 30.0258 54 31.5693 54 32C54 32.5 54.5 33 55 33C55.3905 33 56.0858 31.7805 56.3718 31.246C56.4362 31.1256 56.5997 31.0997 56.6962 31.1962L57.486 31.986C57.4953 31.9953 57.5038 32.0057 57.5111 32.0167C58.4734 33.4723 58.3304 34.8451 57.5618 36.3789C57.5251 36.4522 57.447 36.4949 57.3656 36.4852C54.7118 36.1706 51.4917 34.4749 51 33Z" fill="url(#paint3_linear_27_44)"/>
<path d="M43.5 17.5C39.2268 13.2379 16.2319 20.2232 8.71039 41.3921C8.64481 41.5767 8.85585 41.7368 9.01541 41.6231C9.99808 40.9234 10.6998 40.5853 11.759 40.9157C11.8829 40.9543 11.9276 41.1035 11.8562 41.2119C9.72838 44.4397 10.239 48.0018 10.4719 53.3107C10.4807 53.5108 10.7468 53.5779 10.8487 53.4055C11.5519 52.2162 12.0444 51.461 12.6487 50.8369C12.773 50.7085 12.9811 50.8111 12.9721 50.9897C12.6116 58.1547 14.6461 60.5563 18.5544 64.0982C18.6967 64.2272 18.921 64.1001 18.8847 63.9115C18.6063 62.4643 18.4775 61.4595 18.8584 59.9924C18.9042 59.8161 19.1428 59.802 19.2213 59.9663C24.095 70.1687 28.35 74.7026 38.8413 79.2199C39.0269 79.2998 39.1957 79.0772 39.0782 78.9128C22.4402 55.6516 22.8778 44.2025 40.7564 31.1768C40.8708 31.0935 41.0377 31.1505 41.0724 31.2877C42.0893 35.3044 42.8759 37.3442 45.5 39C50.6119 42.3859 53.2955 42.362 56.7322 39.2475C56.849 39.1416 56.8001 38.9484 56.6481 38.9069C53.7307 38.1107 52.3526 37.0902 50.5172 34.5242C50.506 34.5084 50.4967 34.4903 50.4904 34.4719C49.095 30.3818 49.1622 28.2205 50.5 24.5C51.8409 20.771 62 37 63 39.5C64 42 68 37.0001 68.5 34.5C69 32 60.5 16 54 18.5C47.5 21.0001 47.8138 21.8026 43.5 17.5Z" fill="url(#paint4_linear_27_44)"/>
<path d="M7.20848 27.5772C6.10921 29.1671 4.14559 29.2283 2.78274 28.2861C1.41989 27.3439 1.17389 25.755 2.27316 24.165C3.37244 22.575 5.28275 22.5947 6.28274 23.2861C8.92077 25.11 8.30776 25.9872 7.20848 27.5772Z" fill="url(#paint5_linear_27_44)"/>
<path d="M7.23576 31.2589C5.50612 30.2544 4.53137 29.6082 2.97687 28.4333C2.8764 28.3574 2.87034 28.2083 2.96447 28.1246L7.21567 24.3458C7.25837 24.3078 7.26448 24.2369 7.31081 24.2035C7.51286 24.0577 8.80816 25.5304 11.1983 27.7092C11.2502 27.7565 11.2744 27.8292 11.2596 27.8979C10.7423 30.2938 9.2798 31.2682 7.33684 31.2859C7.3016 31.2862 7.26623 31.2766 7.23576 31.2589Z" fill="url(#paint6_linear_27_44)"/>
<path d="M13.6041 21.336C12.3226 22.7831 10.3657 22.6091 9.12533 21.5106C7.88493 20.4122 7.8307 18.8053 9.11222 17.3582C10.3937 15.911 12.288 16.159 13.1981 16.965C15.5991 19.0913 14.8856 19.8889 13.6041 21.336Z" fill="url(#paint7_linear_27_44)"/>
<path d="M13.1909 24.9945C11.5938 23.7904 10.7033 23.0323 9.30045 21.68C9.20978 21.5926 9.2216 21.4438 9.32505 21.372L13.9976 18.1286C14.0446 18.0961 14.0591 18.0264 14.1091 17.9987C14.3271 17.8781 15.437 19.4952 17.5495 21.9441C17.5954 21.9973 17.6107 22.0724 17.5877 22.1388C16.7877 24.4557 15.2192 25.2483 13.288 25.0335C13.253 25.0296 13.219 25.0158 13.1909 24.9945Z" fill="url(#paint8_linear_27_44)"/>
<path d="M20.3662 16.8259C18.9557 17.9353 17.2443 17.4379 16.3428 16.2141C15.4414 14.9904 15.6912 13.5037 17.1017 12.3943C18.5122 11.2848 20.1541 11.8394 20.8156 12.7374C22.5605 15.1062 21.7767 15.7164 20.3662 16.8259Z" fill="url(#paint9_linear_27_44)"/>
<path d="M19.3151 20.1135C18.1206 18.7369 17.4683 17.8873 16.474 16.4098C16.4052 16.3076 16.4446 16.1677 16.5567 16.1165L21.3075 13.9471C21.3584 13.9239 21.3849 13.8568 21.4393 13.8437C21.66 13.7909 22.3484 15.4624 23.7663 18.0602C23.7991 18.1204 23.7992 18.195 23.765 18.2545C22.6238 20.2411 21.0823 20.6997 19.4048 20.1727C19.3702 20.1618 19.3388 20.1409 19.3151 20.1135Z" fill="url(#paint10_linear_27_44)"/>
<path d="M27.4007 13.8253C25.7536 14.4044 24.2841 13.4073 23.7859 11.9955C23.2878 10.5836 23.9497 9.29168 25.5968 8.71266C27.2438 8.13363 28.6315 9.16155 28.997 10.1975C29.9612 12.9304 29.0478 13.2463 27.4007 13.8253Z" fill="url(#paint11_linear_27_44)"/>
<path d="M25.4555 16.5653C24.7266 14.9236 24.3559 13.9359 23.8449 12.2678C23.8079 12.1473 23.8906 12.0228 24.016 12.0104L29.0975 11.5069C29.1544 11.5012 29.2038 11.4419 29.2598 11.4533C29.4804 11.4983 29.6511 13.2489 30.2364 16.0667C30.2508 16.1356 30.2277 16.2086 30.1753 16.2554C28.5317 17.7234 26.9493 17.6597 25.5214 16.6464C25.4927 16.626 25.4698 16.5975 25.4555 16.5653Z" fill="url(#paint12_linear_27_44)"/>
<path d="M34.3904 12.113C32.7764 12.1965 31.7445 10.9309 31.6842 9.5512C31.6239 8.17149 32.558 7.20013 34.1719 7.11661C35.7859 7.03309 36.737 8.30467 36.7812 9.31705C36.8979 11.9878 36.0043 12.0295 34.3904 12.113Z" fill="url(#paint13_linear_27_44)"/>
<path d="M31.9294 14.0274C31.728 12.3925 31.666 11.4228 31.663 9.82413C31.6627 9.69887 31.7767 9.6041 31.8998 9.62742L36.511 10.5013C36.5669 10.5118 36.6339 10.4673 36.6802 10.5004C36.8525 10.6234 36.536 12.2098 36.2967 14.8284C36.2904 14.8979 36.2477 14.9607 36.1845 14.9904C34.3391 15.8567 32.9587 15.3896 31.9695 14.1247C31.9476 14.0968 31.9338 14.0626 31.9294 14.0274Z" fill="url(#paint14_linear_27_44)"/>
<path d="M41.8151 11.5388C40.3179 11.5211 39.4308 10.2871 39.4483 9.00474C39.4659 7.72236 40.3815 6.87714 41.8787 6.89493C43.3759 6.91273 44.188 8.14743 44.1751 9.0884C44.141 11.5707 43.3123 11.5566 41.8151 11.5388Z" fill="url(#paint15_linear_27_44)"/>
<path d="M39.437 13.1645C39.3382 11.6459 39.3321 10.7449 39.4132 9.27524C39.4201 9.14965 39.5403 9.06155 39.6621 9.09281L43.8556 10.1684C43.9108 10.1825 43.9853 10.1418 44.0237 10.184C44.1627 10.3366 43.7913 11.7793 43.4353 14.1595C43.4249 14.2289 43.3784 14.2892 43.3131 14.315C41.566 15.0036 40.3174 14.4902 39.471 13.2635C39.451 13.2344 39.4393 13.1997 39.437 13.1645Z" fill="url(#paint16_linear_27_44)"/>
<path d="M57.6877 14.6491C56.5816 14.1766 56.2734 12.9622 56.6503 11.9881C57.0273 11.014 57.9467 10.6491 59.0528 11.1216C60.1589 11.5941 60.4112 12.7861 60.1346 13.5009C59.4049 15.3864 58.7938 15.1216 57.6877 14.6491Z" fill="url(#paint17_linear_27_44)"/>
<path d="M55.4638 15.154C55.8147 13.9868 56.0636 13.3005 56.5257 12.2341C56.577 12.1158 56.7253 12.0768 56.8284 12.1542L59.5756 14.2162C59.6223 14.2513 59.7125 14.2523 59.7149 14.3107C59.7237 14.5184 59.0597 15.4887 58.1585 17.1254C58.1238 17.1886 58.0571 17.2293 57.9851 17.2284C56.5134 17.2099 55.7402 16.4403 55.4604 15.2553C55.4525 15.2221 55.4539 15.1867 55.4638 15.154Z" fill="url(#paint18_linear_27_44)"/>
<path d="M61.847 17.5149C61.0542 16.8179 61.1576 15.7727 61.7679 15.1182C62.3782 14.4636 63.2643 14.4475 64.0571 15.1445C64.85 15.8416 64.706 16.8527 64.2582 17.3329C63.0768 18.5999 62.6399 18.2119 61.847 17.5149Z" fill="url(#paint19_linear_27_44)"/>
<path d="M59.8237 17.2485C60.4619 16.4449 60.8761 15.9804 61.5753 15.2882C61.6631 15.2014 61.8079 15.2146 61.8788 15.3157L63.5667 17.7236C63.5989 17.7695 63.6807 17.8025 63.6579 17.8538C63.58 18.0289 62.7387 18.5921 61.5103 19.5937C61.457 19.6371 61.3844 19.651 61.3198 19.6275C60.0911 19.1809 59.6685 18.354 59.7824 17.3471C59.7865 17.3111 59.8012 17.2768 59.8237 17.2485Z" fill="url(#paint20_linear_27_44)"/>
<path d="M65.8331 21.433C65.1947 20.7015 65.405 19.7314 66.0294 19.1775C66.6538 18.6235 67.456 18.6954 68.0943 19.4269C68.7326 20.1584 68.4896 21.0925 68.0314 21.499C66.8227 22.5713 66.4714 22.1645 65.8331 21.433Z" fill="url(#paint21_linear_27_44)"/>
<path d="M64.0363 20.9832C64.6957 20.2995 65.1199 19.9056 65.8164 19.3344C65.9144 19.2541 66.0614 19.2847 66.1197 19.3971L67.3591 21.7897C67.3856 21.8407 67.4587 21.8878 67.4266 21.9354C67.3174 22.0976 66.5048 22.5402 65.3061 23.343C65.2474 23.3823 65.1716 23.3886 65.1087 23.3563C64.059 22.817 63.7724 22.0032 63.9865 21.074C63.9944 21.0399 64.012 21.0084 64.0363 20.9832Z" fill="url(#paint22_linear_27_44)"/>
<path d="M65.2515 6.25513C54.1238 2.84281 45.2605 10.3013 46.2309 15.119L50.9014 18.1632C50.9453 18.1918 51.0012 18.202 51.0521 18.1896C54.3847 17.381 51.2065 9.27828 65.2162 6.63893C65.4198 6.60058 65.4496 6.31587 65.2515 6.25513Z" fill="url(#paint23_linear_27_44)"/>
<path d="M52.8149 12.4355C52.8872 12.6334 53.2086 12.9488 53.3851 13.0638C54.3046 13.6631 51.6654 19.0832 49.8072 19.4749C47.6356 19.9327 44.9699 18.2888 45.4307 15.76C46.0786 12.2045 48.1745 10.1401 48.341 12.3236C48.3506 12.4494 48.466 12.5439 48.5895 12.518C50.3144 12.1559 52.5529 11.7185 52.8149 12.4355Z" fill="url(#paint24_linear_27_44)"/>
<defs>
<linearGradient id="paint0_linear_27_44" x1="59.1536" y1="40.2086" x2="62.1562" y2="48.2062" gradientUnits="userSpaceOnUse">
<stop stop-color="#0D83A4"/>
<stop offset="0.443087" stop-color="#0094A6"/>
<stop offset="1" stop-color="#71F1D3"/>
</linearGradient>
<linearGradient id="paint1_linear_27_44" x1="58.2159" y1="48.6321" x2="64.5328" y2="59.5596" gradientUnits="userSpaceOnUse">
<stop stop-color="#0D83A4"/>
<stop offset="0.443087" stop-color="#0094A6"/>
<stop offset="1" stop-color="#71F1D3"/>
</linearGradient>
<linearGradient id="paint2_linear_27_44" x1="40.7243" y1="42.6072" x2="50.0789" y2="57.3829" gradientUnits="userSpaceOnUse">
<stop stop-color="#0D83A4"/>
<stop offset="0.443087" stop-color="#0094A6"/>
<stop offset="1" stop-color="#71F1D3"/>
</linearGradient>
<linearGradient id="paint3_linear_27_44" x1="51.4362" y1="27.8962" x2="57.0648" y2="34.941" gradientUnits="userSpaceOnUse">
<stop stop-color="#0D83A4"/>
<stop offset="0.443087" stop-color="#0094A6"/>
<stop offset="1" stop-color="#71F1D3"/>
</linearGradient>
<linearGradient id="paint4_linear_27_44" x1="16.1288" y1="22.2695" x2="51.9177" y2="74.5393" gradientUnits="userSpaceOnUse">
<stop stop-color="#0D83A4"/>
<stop offset="0.443087" stop-color="#0094A6"/>
<stop offset="1" stop-color="#71F1D3"/>
</linearGradient>
<linearGradient id="paint5_linear_27_44" x1="4.28088" y1="22.6021" x2="4.15422" y2="28.7851" gradientUnits="userSpaceOnUse">
<stop stop-color="#0D83A4"/>
<stop offset="0.443087" stop-color="#0094A6"/>
<stop offset="1" stop-color="#71F1D3"/>
</linearGradient>
<linearGradient id="paint6_linear_27_44" x1="3.86315" y1="24.8626" x2="7.4755" y2="31.5194" gradientUnits="userSpaceOnUse">
<stop stop-color="#0D83A4"/>
<stop offset="0.443087" stop-color="#0094A6"/>
<stop offset="1" stop-color="#71F1D3"/>
</linearGradient>
<linearGradient id="paint7_linear_27_44" x1="11.2924" y1="16.0465" x2="10.4273" y2="22.17" gradientUnits="userSpaceOnUse">
<stop stop-color="#0D83A4"/>
<stop offset="0.443087" stop-color="#0094A6"/>
<stop offset="1" stop-color="#71F1D3"/>
</linearGradient>
<linearGradient id="paint8_linear_27_44" x1="10.6074" y1="18.2409" x2="13.3978" y2="25.2819" gradientUnits="userSpaceOnUse">
<stop stop-color="#0D83A4"/>
<stop offset="0.443087" stop-color="#0094A6"/>
<stop offset="1" stop-color="#71F1D3"/>
</linearGradient>
<linearGradient id="paint9_linear_27_44" x1="19.2879" y1="11.5643" x2="17.3731" y2="17.0422" gradientUnits="userSpaceOnUse">
<stop stop-color="#0D83A4"/>
<stop offset="0.443087" stop-color="#0094A6"/>
<stop offset="1" stop-color="#71F1D3"/>
</linearGradient>
<linearGradient id="paint10_linear_27_44" x1="18.2702" y1="13.4636" x2="19.6461" y2="20.3791" gradientUnits="userSpaceOnUse">
<stop stop-color="#0D83A4"/>
<stop offset="0.443087" stop-color="#0094A6"/>
<stop offset="1" stop-color="#71F1D3"/>
</linearGradient>
<linearGradient id="paint11_linear_27_44" x1="27.8944" y1="8.63537" x2="24.5255" y2="13.088" gradientUnits="userSpaceOnUse">
<stop stop-color="#0D83A4"/>
<stop offset="0.443087" stop-color="#0094A6"/>
<stop offset="1" stop-color="#71F1D3"/>
</linearGradient>
<linearGradient id="paint12_linear_27_44" x1="26.3786" y1="10.1051" x2="25.488" y2="16.8868" gradientUnits="userSpaceOnUse">
<stop stop-color="#0D83A4"/>
<stop offset="0.443087" stop-color="#0094A6"/>
<stop offset="1" stop-color="#71F1D3"/>
</linearGradient>
<linearGradient id="paint13_linear_27_44" x1="36.2264" y1="7.64678" x2="32.043" y2="10.7095" gradientUnits="userSpaceOnUse">
<stop stop-color="#0D83A4"/>
<stop offset="0.443087" stop-color="#0094A6"/>
<stop offset="1" stop-color="#71F1D3"/>
</linearGradient>
<linearGradient id="paint14_linear_27_44" x1="34.4886" y1="8.5531" x2="31.9197" y2="14.3462" gradientUnits="userSpaceOnUse">
<stop stop-color="#0D83A4"/>
<stop offset="0.443087" stop-color="#0094A6"/>
<stop offset="1" stop-color="#71F1D3"/>
</linearGradient>
<linearGradient id="paint15_linear_27_44" x1="43.7507" y1="7.50753" x2="39.7194" y2="10.1006" gradientUnits="userSpaceOnUse">
<stop stop-color="#0D83A4"/>
<stop offset="0.443087" stop-color="#0094A6"/>
<stop offset="1" stop-color="#71F1D3"/>
</linearGradient>
<linearGradient id="paint16_linear_27_44" x1="42.0952" y1="8.24505" x2="39.3822" y2="13.4478" gradientUnits="userSpaceOnUse">
<stop stop-color="#0D83A4"/>
<stop offset="0.443087" stop-color="#0094A6"/>
<stop offset="1" stop-color="#71F1D3"/>
</linearGradient>
<linearGradient id="paint17_linear_27_44" x1="60.2683" y1="12.1633" x2="56.5417" y2="12.9141" gradientUnits="userSpaceOnUse">
<stop stop-color="#0D83A4"/>
<stop offset="0.443087" stop-color="#0094A6"/>
<stop offset="1" stop-color="#71F1D3"/>
</linearGradient>
<linearGradient id="paint18_linear_27_44" x1="58.8304" y1="12.2192" x2="55.2418" y2="15.2444" gradientUnits="userSpaceOnUse">
<stop stop-color="#0D83A4"/>
<stop offset="0.443087" stop-color="#0094A6"/>
<stop offset="1" stop-color="#71F1D3"/>
</linearGradient>
<linearGradient id="paint19_linear_27_44" x1="64.7719" y1="16.3211" x2="61.4001" y2="15.8049" gradientUnits="userSpaceOnUse">
<stop stop-color="#0D83A4"/>
<stop offset="0.443087" stop-color="#0094A6"/>
<stop offset="1" stop-color="#71F1D3"/>
</linearGradient>
<linearGradient id="paint20_linear_27_44" x1="63.5404" y1="15.9417" x2="59.6884" y2="17.4785" gradientUnits="userSpaceOnUse">
<stop stop-color="#0D83A4"/>
<stop offset="0.443087" stop-color="#0094A6"/>
<stop offset="1" stop-color="#71F1D3"/>
</linearGradient>
<linearGradient id="paint21_linear_27_44" x1="68.6085" y1="20.6005" x2="65.6191" y2="19.7904" gradientUnits="userSpaceOnUse">
<stop stop-color="#0D83A4"/>
<stop offset="0.443087" stop-color="#0094A6"/>
<stop offset="1" stop-color="#71F1D3"/>
</linearGradient>
<linearGradient id="paint22_linear_27_44" x1="67.5384" y1="20.1237" x2="63.8552" y2="21.0611" gradientUnits="userSpaceOnUse">
<stop stop-color="#0D83A4"/>
<stop offset="0.443087" stop-color="#0094A6"/>
<stop offset="1" stop-color="#71F1D3"/>
</linearGradient>
<linearGradient id="paint23_linear_27_44" x1="47.6022" y1="8.60938" x2="54.1622" y2="19.6001" gradientUnits="userSpaceOnUse">
<stop stop-color="#0D83A4"/>
<stop offset="0.443087" stop-color="#0094A6"/>
<stop offset="1" stop-color="#71F1D3"/>
</linearGradient>
<linearGradient id="paint24_linear_27_44" x1="45.6697" y1="12.6694" x2="51.5908" y2="18.8492" gradientUnits="userSpaceOnUse">
<stop stop-color="#0D83A4"/>
<stop offset="0.443087" stop-color="#0094A6"/>
<stop offset="1" stop-color="#71F1D3"/>
</linearGradient>
</defs>
</svg>
